<svg width="174" height="28" viewBox="0 0 174 28" fill="none" xmlns="http://www.w3.org/2000/svg">
<path d="M115.046 24.0739C116.136 24.0739 117.082 23.1619 117.091 22.0284C117.082 20.9119 116.136 20 115.046 20C113.921 20 112.992 20.9119 113 22.0284C112.992 23.1619 113.921 24.0739 115.046 24.0739Z" fill="#FF57B2"/>
<path d="M66.8004 10.6562C66.3146 6.625 63.2635 4.30682 59.2237 4.30682C54.6129 4.30682 51.093 7.5625 51.093 13.2727C51.093 18.9659 54.5533 22.2386 59.2237 22.2386C63.6982 22.2386 66.3999 19.2642 66.8004 16.0511L63.0675 16.0341C62.718 17.9006 61.2521 18.9744 59.2834 18.9744C56.6328 18.9744 54.8345 17.0057 54.8345 13.2727C54.8345 9.64204 56.6072 7.57102 59.3089 7.57102C61.3288 7.57102 62.7862 8.73864 63.0675 10.6562H66.8004ZM75.2933 22.2557C79.2649 22.2557 81.7365 19.5369 81.7365 15.5057C81.7365 11.4489 79.2649 8.73864 75.2933 8.73864C71.3217 8.73864 68.8501 11.4489 68.8501 15.5057C68.8501 19.5369 71.3217 22.2557 75.2933 22.2557ZM75.3104 19.4432C73.478 19.4432 72.5405 17.7642 72.5405 15.4801C72.5405 13.196 73.478 11.5085 75.3104 11.5085C77.1087 11.5085 78.0462 13.196 78.0462 15.4801C78.0462 17.7642 77.1087 19.4432 75.3104 19.4432ZM88.9212 22.2131C91.0348 22.2131 92.1342 20.9943 92.6371 19.9034H92.7905V22H96.37V4.54545H92.7479V11.108H92.6371C92.1513 10.0426 91.103 8.73864 88.9126 8.73864C86.0405 8.73864 83.6115 10.9716 83.6115 15.4716C83.6115 19.8523 85.9382 22.2131 88.9212 22.2131ZM90.0717 19.3239C88.2905 19.3239 87.3189 17.7386 87.3189 15.4545C87.3189 13.1875 88.2734 11.6278 90.0717 11.6278C91.8359 11.6278 92.8246 13.1193 92.8246 15.4545C92.8246 17.7898 91.8189 19.3239 90.0717 19.3239ZM105.321 22.2557C108.56 22.2557 110.741 20.679 111.253 18.25L107.895 18.0284C107.528 19.0256 106.591 19.5455 105.381 19.5455C103.565 19.5455 102.415 18.3438 102.415 16.392V16.3835H111.33V15.3864C111.33 10.9375 108.636 8.73864 105.176 8.73864C101.324 8.73864 98.8267 11.4744 98.8267 15.5142C98.8267 19.6648 101.29 22.2557 105.321 22.2557ZM102.415 14.1335C102.491 12.642 103.625 11.4489 105.236 11.4489C106.812 11.4489 107.903 12.5739 107.912 14.1335H102.415ZM119.322 22H126.779C130.7 22 132.788 19.9545 132.788 17.1761C132.788 14.5938 130.938 13.0341 128.952 12.9403V12.7699C130.768 12.3608 132.106 11.0739 132.106 9.01989C132.106 6.40341 130.163 4.54545 126.31 4.54545H119.322V22ZM123.012 18.983V14.3466H126.106C127.879 14.3466 128.978 15.3693 128.978 16.8097C128.978 18.1222 128.083 18.983 126.021 18.983H123.012ZM123.012 11.8494V7.52841H125.816C127.452 7.52841 128.381 8.37216 128.381 9.63352C128.381 11.0142 127.256 11.8494 125.748 11.8494H123.012ZM138.751 4.54545H135.121V22H138.751V4.54545ZM147.575 22.2557C151.546 22.2557 154.018 19.5369 154.018 15.5057C154.018 11.4489 151.546 8.73864 147.575 8.73864C143.603 8.73864 141.131 11.4489 141.131 15.5057C141.131 19.5369 143.603 22.2557 147.575 22.2557ZM147.592 19.4432C145.759 19.4432 144.822 17.7642 144.822 15.4801C144.822 13.196 145.759 11.5085 147.592 11.5085C149.39 11.5085 150.327 13.196 150.327 15.4801C150.327 17.7642 149.39 19.4432 147.592 19.4432ZM162.276 27.1818C166.018 27.1818 168.677 25.4773 168.677 22.1278V8.90909H165.072V11.108H164.935C164.45 10.0426 163.384 8.73864 161.194 8.73864C158.322 8.73864 155.893 10.9716 155.893 15.429C155.893 19.7841 158.254 21.8125 161.202 21.8125C163.29 21.8125 164.458 20.7642 164.935 19.6818H165.089V22.0767C165.089 23.875 163.938 24.5739 162.362 24.5739C160.759 24.5739 159.95 23.875 159.651 23.0824L156.293 23.5341C156.728 25.5966 158.748 27.1818 162.276 27.1818ZM162.353 19.0852C160.572 19.0852 159.6 17.6705 159.6 15.4119C159.6 13.1875 160.555 11.6278 162.353 11.6278C164.117 11.6278 165.106 13.1193 165.106 15.4119C165.106 17.7216 164.1 19.0852 162.353 19.0852Z" fill="white"/>
<path d="M9.88103 1.55307L0 13.0576L9.88103 24.5601L12.2174 20.8829L5.55897 13.0556L12.2174 5.2283L9.88103 1.55307ZM14.2051 24.2854H18.5415L25.4359 1.76499H21.0974L14.2051 24.2854ZM30.119 1.55307L27.7826 5.23027L34.441 13.0576L27.7826 20.8848L30.119 24.562L40 13.0595L30.119 1.55307Z" fill="#FF57B2"/>
</svg>
